<?xml version="1.0" standalone="no"?><!DOCTYPE svg PUBLIC "-//W3C//DTD SVG 1.1//EN" "http://www.w3.org/Graphics/SVG/1.1/DTD/svg11.dtd"><svg class="icon" width="200px" height="200.00px" viewBox="0 0 1024 1024" version="1.1" xmlns="http://www.w3.org/2000/svg"><path d="M571.2 297.8h200.2c16.3 0 29.6 13.3 29.6 29.6 0 16.4-13.3 29.6-29.6 29.6H571.2c-16.3 0-29.6-13.2-29.6-29.6 0-16.3 13.3-29.6 29.6-29.6zM571.2 537.5h200.2c16.3 0 29.6 13.2 29.6 29.6 0 16.4-13.3 29.6-29.6 29.6H571.2c-16.3 0-29.6-13.2-29.6-29.6 0-16.4 13.3-29.6 29.6-29.6zM245.6 297.9h177.6c21.8 0 39.5 17.7 39.5 39.4v335.5c0 21.8-17.7 39.4-39.5 39.4H245.6c-21.8 0-39.5-17.6-39.5-39.4V337.3c0-21.8 17.7-39.4 39.5-39.4zM571.2 416.3h200.2c16.3 0 29.6 13.2 29.6 29.5 0 16.4-13.3 29.6-29.6 29.6H571.2c-16.3 0-29.6-13.3-29.6-29.6s13.3-29.5 29.6-29.5zM571.2 655.9h200.2c16.3 0 29.6 13.2 29.6 29.6 0 16.3-13.3 29.6-29.6 29.6H571.2c-16.3 0-29.6-13.3-29.6-29.6 0-16.4 13.3-29.6 29.6-29.6z" fill="#040000" /><path d="M863.1 153.9H160.9c-53.5 0-96.9 43.4-96.9 96.9v508.5c0 53.5 43.4 96.9 96.9 96.9H176l30.2-45.3 30.2 45.3h97.5l30.2-45.3 30.2 45.3h97.5l30.2-45.3 30.2 45.3h97.5l30.2-45.3 30.2 45.3h97.5l30.2-45.3 30.1 45.2c51.4-2.4 92.3-44.8 92.3-96.8V250.8c-0.2-53.5-43.6-96.9-97.1-96.9z m24.3 581.2c0 26.8-21.7 48.4-48.4 48.4H185.1c-26.7 0-48.4-21.6-48.4-48.4V275c0-26.7 21.7-48.5 48.4-48.5h653.8c26.7 0 48.4 21.7 48.4 48.5l0.1 460.1z" fill="#040000" /></svg>