<?xml version="1.0" standalone="no"?><!DOCTYPE svg PUBLIC "-//W3C//DTD SVG 1.1//EN" "http://www.w3.org/Graphics/SVG/1.1/DTD/svg11.dtd"><svg class="icon" width="200px" height="200.00px" viewBox="0 0 1024 1024" version="1.1" xmlns="http://www.w3.org/2000/svg"><path d="M640 512c0-70-58-128-128-128v-86c118 0 214 96 214 214H640z m170 0c0-166-132-298-298-298V128c212 0 384 172 384 384h-86z m44 150c24 0 42 18 42 42v150c0 24-18 42-42 42C454 896 128 570 128 170c0-24 18-42 42-42H320c24 0 42 18 42 42 0 54 8 104 24 152 4 14 2 32-10 44L282 460C344 582 444 680 564 742l94-94c12-12 30-14 44-10 48 16 98 24 152 24z" fill="#2c2c2c" /></svg>